HIERARCHY
ROOT pelvis
{
  OFFSET 0 100 0
  CHANNELS 6 Xposition Yposition Zposition Zrotation Xrotation Yrotation
  JOINT pelvis_right_femur
  {
    OFFSET -10.78128 -3.44521 -0.5502486
    CHANNELS 3 Zrotation Xrotation Yrotation
    JOINT right_femur_tibia
    {
      OFFSET -0.8047443 -44.0398 -0.1307829
      CHANNELS 3 Zrotation Xrotation Yrotation
      JOINT right_tibia_foot
      {
        OFFSET 3.006224 -47.83518 -5
        CHANNELS 3 Zrotation Xrotation Yrotation
        End Site
        {
          OFFSET 0 -5 15
        }
      }
    }
  }
  JOINT pelvis_left_femur
  {
    OFFSET 10.78128 -3.44521 -0.5502486
    CHANNELS 3 Zrotation Xrotation Yrotation
    JOINT left_femur_tibia
    {
      OFFSET 0.8047443 -44.0398 -0.1307829
      CHANNELS 3 Zrotation Xrotation Yrotation
      JOINT left_tibia_foot
      {
        OFFSET -4.370144 -48.10324 -4.275266
        CHANNELS 3 Zrotation Xrotation Yrotation
        End Site
        {
          OFFSET 0 -5 15
        }
      }
    }
  }
  JOINT pelvis_spine1
  {
    OFFSET 0 6.468898 -3.129235
    CHANNELS 3 Zrotation Xrotation Yrotation
    JOINT spine1
    {
      OFFSET 0 23.15396 4.99043
      CHANNELS 3 Zrotation Xrotation Yrotation
      JOINT spine2
      {
        OFFSET 0 20.79997 -5.064912
        CHANNELS 3 Zrotation Xrotation Yrotation
        JOINT neck
        {
          OFFSET 0 14.38658 9.616178
          CHANNELS 3 Zrotation Xrotation Yrotation
          End Site
          {
            OFFSET 0 20 0
          }
        }
      }
      JOINT right_manubrium
      {
        OFFSET -5.722621 16.35077 3.967754
        CHANNELS 3 Zrotation Xrotation Yrotation
        JOINT right_clavicle
        {
          OFFSET -13.16364 1.694482 -4.693211
          CHANNELS 3 Zrotation Xrotation Yrotation
          JOINT right_humerus
          {
            OFFSET -28.5034 -0.3100689 -2.792744
            CHANNELS 3 Zrotation Xrotation Yrotation
            JOINT right_radius
            {
              OFFSET -25.15693 0.02248979 -1.271978
              CHANNELS 3 Zrotation Xrotation Yrotation
              End Site
              {
                OFFSET -15 0 0
              }
            }
          }
        }
      }
      JOINT left_manubrium
      {
        OFFSET 5.722621 16.35077 3.967754
        CHANNELS 3 Zrotation Xrotation Yrotation
        JOINT left_clavicle
        {
          OFFSET 13.16364 1.694482 -4.693211
          CHANNELS 3 Zrotation Xrotation Yrotation
          JOINT left_humerus
          {
            OFFSET 29.39168 -1.063119 -2.237045
            CHANNELS 3 Zrotation Xrotation Yrotation
            JOINT left_radius
            {
              OFFSET 24.59957 -0.9528479 0.9047498
              CHANNELS 3 Zrotation Xrotation Yrotation
              End Site
              {
                OFFSET 15 -0 -0
              }
            }
          }
        }
      }
    }
  }
}
MOTION
Frames: 9
Frame Time: 0.0416666666667
59.59496 103.8833 257.0206 4.016569 -7.727617 5.905837 -2.190246 24.62652 8.210609 -0 27.63174 -0 6.646324 -11.89504 -0.2526941 -2.611823 -23.35468 -7.418416 -0 24.75256 -0 -8.174085 -6.07616 18.30866 -1.473571 -1.846169 9.741859 -2.593553 9.568824 -2.06481 2.593266 21.72427 3.862834 1.421776 -14.54882 6.150673 0.437085 -21.71874 10.59183 82.22479 19.47937 -6.165075 -0 0 27.88672 -23.3961 10.11927 12.88053 4.515073 -12.65116 -2.856928 -94.61762 23.40068 26.78773 0 0 -8.351007 -4.661639 5.076992 18.85326
61.66214 104.3487 264.2826 4.449368 -7.976416 6.458543 -3.054575 22.86152 7.51394 -0 35.32623 -0 6.641559 -9.930197 -1.149958 -4.216254 -19.50278 -8.665556 -0 25.53686 -0 -7.84045 -6.705023 17.83071 -2.039685 -2.25137 9.413114 -2.551609 9.437792 -2.128214 2.685319 21.96751 3.862103 1.295257 -14.49952 6.383334 0.8365219 -20.70425 10.35285 83.08697 19.55106 -7.3584 -0 0 25.95696 -23.01648 10.14714 12.31366 4.343368 -12.5158 -2.962884 -93.81755 23.9049 25.75822 0 0 -8.11486 -4.643849 5.163678 18.93426
63.63747 105.3473 271.2338 4.873002 -8.513781 7.448304 -3.287925 19.19892 6.573491 -0 43.30623 -0 6.349699 -8.425925 -2.486062 -5.546799 -14.6356 -9.57705 -0 26.03437 -0 -7.380885 -7.894975 17.36417 -2.479317 -2.169932 8.69811 -2.44298 9.429756 -2.324829 2.671167 22.35111 3.926693 1.112516 -14.36211 6.620278 1.374775 -19.62024 10.2489 84.14231 19.83145 -8.879314 -0 0 23.48998 -22.44462 10.26987 11.59325 4.179202 -12.85023 -3.146596 -92.47758 24.47929 23.83992 0 0 -8.54802 -4.404356 5.363759 18.71624
65.48352 106.7205 277.7425 5.133038 -9.163479 8.702161 -2.99022 13.79611 5.524979 -0 49.79586 -0 5.869769 -7.657437 -3.95502 -6.390762 -9.098364 -10.11778 -0 25.72879 -0 -6.927487 -9.350561 16.89221 -2.69462 -1.698216 7.609864 -2.237441 9.46336 -2.724943 2.57547 22.83606 4.070263 0.8856621 -14.13712 6.897313 1.862191 -18.57266 10.19679 85.36146 20.24579 -10.55843 -0 0 20.93307 -21.72896 10.44213 10.84294 4.065248 -13.52402 -3.41435 -90.73145 25.05566 21.15448 0 0 -9.573549 -3.964732 5.667196 18.23401
67.18619 108.2504 283.7949 5.153163 -9.681338 10.0603 -2.449269 7.247078 4.526871 -0 53.09646 -0 5.267885 -7.537835 -5.252912 -6.691557 -3.379675 -10.37398 -0 24.41999 -0 -6.608755 -10.76919 16.37244 -2.698133 -1.079177 6.262326 -1.913154 9.434942 -3.372137 2.463433 23.35558 4.274051 0.6522188 -13.84862 7.238483 2.106481 -17.57326 10.06971 86.70375 20.69432 -12.31207 -0 0 18.63687 -20.93652 10.60785 10.16048 4.076576 -14.37553 -3.743299 -88.75935 25.56657 17.89657 0 0 -11.1161 -3.37112 6.061625 17.52697
68.78483 109.582 289.419 5.051522 -9.790138 11.51513 -1.939496 0.49804 3.731966 -0 52.35761 -0 4.555173 -7.526738 -6.24371 -6.650327 2.022575 -10.52801 -0 22.29651 -0 -6.443403 -12.10985 15.72228 -2.636594 -0.6020109 4.851587 -1.507909 9.236301 -4.26282 2.420699 23.8129 4.475309 0.4631746 -13.55056 7.625837 1.954521 -16.57145 9.733078 88.05527 21.07014 -14.1248 -0 0 16.75245 -20.14406 10.70646 9.585391 4.287453 -15.29924 -4.073419 -86.71468 25.9717 14.27205 0 0 -13.1379 -2.680328 6.539409 16.6121
70.32834 110.3999 294.8108 4.950597 -9.481089 13.07598 -1.715136 -5.850756 3.202703 -0 47.76879 -0 3.703127 -7.451492 -7.008955 -6.456696 6.898193 -10.67532 -0 19.87493 -0 -6.371146 -13.47879 14.94386 -2.652529 -0.3330889 3.553444 -1.061346 8.86607 -5.306068 2.500688 24.15402 4.594323 0.3526412 -13.29412 7.995246 1.447096 -15.55966 9.192448 89.26006 21.33179 -15.96027 -0 0 15.178 -19.39727 10.71448 9.071155 4.692484 -16.2657 -4.355878 -84.66602 26.26241 10.47445 0 0 -15.53255 -1.922923 7.092987 15.50467
71.85545 110.5395 300.2437 4.933807 -8.882089 14.65969 -1.906547 -11.47141 2.864676 -0 40.21367 -0 2.689192 -7.39066 -7.701305 -6.263099 11.21172 -10.80971 -0 17.73486 -0 -6.330401 -14.96488 14.09883 -2.819991 -0.2205667 2.507129 -0.6117256 8.386204 -6.345392 2.702432 24.35771 4.58265 0.3251068 -13.12542 8.279965 0.7403306 -14.5399 8.549226 90.22019 21.49243 -17.77243 -0 0 13.69678 -18.69774 10.6402 8.530324 5.236425 -17.26812 -4.543221 -82.67012 26.43854 6.695942 0 0 -18.14761 -1.108923 7.709521 14.23844
73.37401 110.0075 305.8088 5.030412 -8.147269 16.05891 -2.395933 -16.18338 2.506639 -0 31.22842 -0 1.540041 -7.51381 -8.427671 -6.193983 14.99848 -10.8296 -0 16.36633 -0 -6.311037 -16.51849 13.28291 -3.103388 -0.1848838 1.81042 -0.2022093 7.884845 -7.164292 2.95119 24.42733 4.459853 0.3442967 -13.08759 8.441975 0.05799829 -13.49888 7.972967 90.97175 21.60273 -19.51143 -0 0 12.0671 -17.99033 10.52218 7.864957 5.830958 -18.28557 -4.576133 -80.8414 26.49812 3.157501 0 0 -20.78901 -0.238588 8.364545 12.88694
